<svg data-v-1ced2996="" width="24" height="24" viewBox="0 0 32 32" fill="none" xmlns="http://www.w3.org/2000/svg" class="ui-icon ">
<rect x="-0.000976562" width="31.9999" height="32" rx="5.33333" fill="white"></rect>
<g clip-path="url(#clip0_6618_43730)">
<path fill-rule="evenodd" clip-rule="evenodd" d="M23.8049 13.8907C23.8049 16.6773 23.1681 18.7541 21.8951 20.1074C20.6219 21.4603 18.6548 22.1368 16.003 22.1368C13.5252 22.1368 11.6456 21.4603 10.364 20.1074C9.08173 18.7544 8.44141 16.7138 8.44141 13.9858V4.83314C8.44166 4.7301 8.4827 4.63135 8.55556 4.55849C8.62842 4.48563 8.72717 4.44459 8.83021 4.44434H13.323C13.426 4.44476 13.5246 4.48586 13.5975 4.55868C13.6703 4.6315 13.7114 4.73015 13.7118 4.83314V14.1858C13.7118 15.2997 13.9179 16.157 14.3374 16.7618C14.6514 17.1781 15.0991 17.4737 15.6053 17.5988C16.1116 17.7239 16.6454 17.6709 17.1172 17.4488C17.43 17.3017 17.705 17.0851 17.9214 16.8155C18.3316 16.2482 18.5358 15.412 18.5345 14.3067V12.5554H23.8049V13.8907Z" fill="#1F3E79"></path>
<path fill-rule="evenodd" clip-rule="evenodd" d="M23.3979 11.5323H18.5352V4.8517C18.5354 4.74374 18.5784 4.64027 18.6547 4.56393C18.7311 4.48759 18.8346 4.44459 18.9425 4.44434H19.6705C19.6714 5.53984 20.1073 6.59016 20.8824 7.36434C21.6576 8.13876 22.7085 8.57381 23.8043 8.57394H23.8055V11.5323H23.3979Z" fill="#1F3E79"></path>
<path fill-rule="evenodd" clip-rule="evenodd" d="M20.7051 4.44434H23.3972C23.5052 4.44467 23.6086 4.4877 23.6849 4.56402C23.7612 4.64034 23.8043 4.74376 23.8046 4.8517V7.5461C22.9828 7.54593 22.1946 7.21945 21.6134 6.63842C21.0322 6.05739 20.7055 5.26936 20.7051 4.44754V4.44434Z" fill="#EF7F1A"></path>
<path fill-rule="evenodd" clip-rule="evenodd" d="M9.32331 26.5818C9.91819 26.5818 10.2052 26.2509 10.2052 25.7648V24.5933H9.77963V25.753C9.77963 25.8746 9.73131 25.9912 9.64532 26.0772C9.55932 26.1632 9.44269 26.2115 9.32107 26.2115C9.19945 26.2115 9.08281 26.1632 8.99682 26.0772C8.91082 25.9912 8.86251 25.8746 8.86251 25.753V24.5933H8.44043V25.7683C8.44043 26.2483 8.72747 26.5824 9.32235 26.5824L9.32331 26.5818ZM12.7742 26.5466V26.1808H11.8308L12.754 24.9264V24.5923H11.2859V24.9584H12.2091L11.2859 26.2093V26.5453L12.7742 26.5466ZM14.763 26.5818C14.9304 26.5856 15.0955 26.5426 15.2399 26.4578C15.3843 26.373 15.5021 26.2495 15.5803 26.1014L15.2219 25.9286C15.1782 26.0134 15.1123 26.0846 15.0313 26.1346C14.9502 26.1847 14.857 26.2117 14.7617 26.2128C14.6389 26.2066 14.5205 26.1653 14.4205 26.0939C14.3205 26.0224 14.2431 25.9238 14.1975 25.8097C14.1518 25.6955 14.1399 25.5707 14.163 25.45C14.1862 25.3293 14.2435 25.2178 14.3281 25.1286C14.4417 25.0093 14.5969 24.9379 14.7617 24.9299C14.8568 24.9316 14.9497 24.9588 15.0307 25.0087C15.1117 25.0587 15.1777 25.1295 15.2219 25.2138L15.5803 25.0378C15.5022 24.8898 15.3843 24.7667 15.2398 24.6824C15.0954 24.5981 14.9302 24.5561 14.763 24.561C14.5937 24.556 14.4259 24.5937 14.2749 24.6705C14.124 24.7472 13.9947 24.8607 13.899 25.0004C13.8033 25.1401 13.7442 25.3017 13.7272 25.4701C13.7101 25.6386 13.7356 25.8087 13.8014 25.9648C13.8807 26.1526 14.015 26.3121 14.1866 26.4222C14.3582 26.5323 14.5592 26.5879 14.763 26.5818ZM18.3982 26.5466L17.6452 24.5933H17.1236L16.3675 26.5466H16.8423L16.9652 26.2157H17.8036L17.9236 26.5466H18.3982ZM17.6891 25.8496H17.0795L17.3844 25.009L17.6891 25.8496ZM21.2071 27.0368L20.4903 25.8032C20.6184 25.7723 20.7315 25.6972 20.8097 25.5911C20.8879 25.4851 20.9262 25.3549 20.9178 25.2234C20.9211 25.1375 20.9062 25.0519 20.8741 24.9723C20.8419 24.8926 20.7932 24.8207 20.7313 24.7612C20.6693 24.7017 20.5954 24.656 20.5145 24.6271C20.4336 24.5982 20.3475 24.5868 20.2618 24.5936H19.3466V26.5472H19.7626V25.8528H20.0676L20.729 27.0365L21.2068 27.0368H21.2071ZM20.2001 25.487H19.7636V24.96H20.1988C20.236 24.9557 20.2736 24.9593 20.3093 24.9706C20.345 24.9819 20.3778 25.0006 20.4058 25.0254C20.4337 25.0503 20.4561 25.0808 20.4714 25.115C20.4867 25.1491 20.4946 25.1861 20.4946 25.2235C20.4946 25.2609 20.4867 25.2979 20.4714 25.3321C20.4561 25.3662 20.4337 25.3967 20.4058 25.4216C20.3778 25.4465 20.345 25.4652 20.3093 25.4764C20.2736 25.4877 20.236 25.4913 20.1988 25.487H20.2001ZM22.7687 26.5472C23.3812 26.5472 23.8062 26.1606 23.8062 25.5718C23.8062 24.983 23.3802 24.5936 22.7687 24.5936H21.9982V26.5472H22.7687ZM22.7687 26.1811H22.4142V24.96H22.7687C22.8506 24.954 22.9329 24.9657 23.0099 24.9943C23.0869 25.0229 23.1568 25.0678 23.2149 25.1258C23.273 25.1839 23.3179 25.2538 23.3466 25.3307C23.3753 25.4077 23.3871 25.4899 23.3812 25.5718C23.3848 25.6532 23.3713 25.7344 23.3417 25.8102C23.3121 25.886 23.2669 25.9548 23.2091 26.0121C23.1513 26.0695 23.0822 26.1141 23.0061 26.1432C22.93 26.1722 22.8487 26.185 22.7674 26.1808L22.7687 26.1811ZM24.3114 24.5562V24.5613C24.3114 24.6332 24.2901 24.7034 24.2502 24.7632C24.2103 24.823 24.1535 24.8696 24.0871 24.8971C24.0207 24.9246 23.9476 24.9318 23.8771 24.9178C23.8066 24.9038 23.7418 24.8692 23.691 24.8184C23.6401 24.7676 23.6055 24.7029 23.5914 24.6324C23.5774 24.5619 23.5845 24.4888 23.612 24.4224C23.6394 24.356 23.686 24.2992 23.7457 24.2592C23.8055 24.2192 23.8757 24.1978 23.9476 24.1978H24.3111V24.5562H24.3114Z" fill="#1F3E79"></path>
</g>
<defs>
<clipPath id="clip0_6618_43730">
<rect width="16" height="22.4" fill="white" transform="translate(8.44141 4.44434)"></rect>
</clipPath>
</defs>
</svg>